<svg width="201" height="189" viewBox="0 0 201 189" fill="none" xmlns="http://www.w3.org/2000/svg">
<path d="M193.552 188.237H73.4138C73.13 188.254 72.8455 188.254 72.5617 188.237C71.8836 188.237 71.2334 187.967 70.754 187.486C70.2745 187.005 70.0052 186.352 70.0052 185.672C70.0052 184.992 70.2745 184.34 70.754 183.859C71.2334 183.378 71.8836 183.108 72.5617 183.108C72.8644 183.07 73.1428 182.922 73.3439 182.692C73.5449 182.462 73.6548 182.166 73.6524 181.86C73.6435 181.522 73.5026 181.202 73.2601 180.969C73.0177 180.735 72.6933 180.607 72.3572 180.611H68.5565C67.8785 180.611 67.2282 180.341 66.7488 179.86C66.2693 179.379 66 178.727 66 178.047V166.506C66 165.826 66.2693 165.174 66.7488 164.693C67.2282 164.212 67.8785 163.941 68.5565 163.941H110.568C111.924 163.941 113.225 163.401 114.184 162.439C115.143 161.477 115.681 160.173 115.681 158.812V89.7215C115.675 88.9722 115.513 88.2324 115.204 87.5501C114.792 86.6656 114.137 85.9175 113.316 85.3935C112.495 84.8696 111.541 84.5916 110.568 84.5923H68.5565C67.8785 84.5923 67.2282 84.3221 66.7488 83.8411C66.2693 83.3602 66 82.7079 66 82.0277V14.9374C66.0022 13.9585 66.1967 12.9896 66.5722 12.086C66.9477 11.1824 67.4969 10.3619 68.1885 9.67129C68.8801 8.98066 69.7005 8.43346 70.6029 8.06091C71.5054 7.68836 72.4721 7.49777 73.4479 7.50002H115.715C116.137 7.49986 116.552 7.60438 116.924 7.80425C117.296 8.00412 117.612 8.29314 117.846 8.64555C118.074 8.99974 118.213 9.40391 118.251 9.82365C118.29 10.2434 118.227 10.6663 118.067 11.0563C117.771 11.7649 117.626 12.5278 117.641 13.296V24.1529H149.325V13.296C149.34 12.5278 149.195 11.7649 148.899 11.0563C148.739 10.6663 148.676 10.2434 148.715 9.82365C148.753 9.40391 148.892 8.99974 149.12 8.64555C149.354 8.29314 149.67 8.00412 150.042 7.80425C150.414 7.60438 150.829 7.49986 151.251 7.50002H193.552C194.528 7.49777 195.495 7.68836 196.397 8.06091C197.299 8.43346 198.12 8.98066 198.812 9.67129C199.503 10.3619 200.052 11.1824 200.428 12.086C200.803 12.9896 200.998 13.9585 201 14.9374V180.782C201 181.763 200.807 182.733 200.433 183.639C200.058 184.545 199.509 185.367 198.818 186.06C198.126 186.752 197.305 187.301 196.401 187.674C195.497 188.048 194.529 188.239 193.552 188.237V188.237ZM78.5609 183.108H193.552C193.856 183.11 194.158 183.052 194.44 182.937C194.722 182.822 194.979 182.653 195.196 182.439C195.413 182.224 195.586 181.969 195.704 181.688C195.823 181.407 195.885 181.105 195.887 180.799V14.9545C195.885 14.6491 195.823 14.3472 195.704 14.066C195.586 13.7847 195.413 13.5296 195.196 13.3153C194.979 13.101 194.722 12.9316 194.44 12.8168C194.158 12.702 193.856 12.6441 193.552 12.6463H154.352V26.7346C154.352 27.4148 154.083 28.0671 153.604 28.5481C153.124 29.029 152.474 29.2992 151.796 29.2992H115.085C114.407 29.2992 113.756 29.029 113.277 28.5481C112.798 28.0671 112.528 27.4148 112.528 26.7346V12.6292H73.3286C73.0242 12.627 72.7224 12.6849 72.4403 12.7997C72.1582 12.9145 71.9014 13.0839 71.6846 13.2982C71.4678 13.5125 71.2952 13.7676 71.1766 14.0489C71.0581 14.3301 70.9959 14.632 70.9937 14.9374V79.4631H110.568C112.523 79.463 114.437 80.025 116.083 81.0826C117.729 82.1401 119.039 83.6488 119.857 85.4301C120.468 86.7782 120.787 88.2407 120.794 89.7215V158.795C120.794 161.516 119.717 164.125 117.799 166.049C115.881 167.973 113.28 169.054 110.568 169.054H71.0789V175.465H72.289C73.134 175.452 73.9733 175.606 74.7583 175.92C75.5434 176.234 76.2585 176.701 76.8624 177.294C77.4663 177.887 77.947 178.595 78.2765 179.375C78.6061 180.156 78.7781 180.995 78.7825 181.842C78.7522 182.271 78.678 182.695 78.5609 183.108V183.108Z" fill="#8CA87C"/>
<path d="M187.187 177H79.0634C78.3835 177 77.7315 176.731 77.2508 176.251C76.7701 175.772 76.5 175.122 76.5 174.444V166.265C76.5 165.587 76.7701 164.937 77.2508 164.457C77.7315 163.978 78.3835 163.709 79.0634 163.709H110.149C111.508 163.709 112.812 163.17 113.774 162.212C114.735 161.253 115.275 159.953 115.275 158.597V89.7555C115.27 89.0087 115.107 88.2714 114.797 87.5914C114.384 86.7099 113.727 85.9642 112.904 85.442C112.08 84.9198 111.124 84.6428 110.149 84.6435H79.0634C78.3835 84.6435 77.7315 84.3742 77.2508 83.8948C76.7701 83.4155 76.5 82.7654 76.5 82.0875V21.306C76.5 20.6281 76.7701 19.978 77.2508 19.4986C77.7315 19.0193 78.3835 18.75 79.0634 18.75H114.677C115.357 18.75 116.009 19.0193 116.49 19.4986C116.971 19.978 117.241 20.6281 117.241 21.306V24.4073H149.009V21.306C149.009 20.6281 149.279 19.978 149.76 19.4986C150.241 19.0193 150.893 18.75 151.573 18.75H187.187C187.866 18.75 188.518 19.0193 188.999 19.4986C189.48 19.978 189.75 20.6281 189.75 21.306V174.444C189.75 175.122 189.48 175.772 188.999 176.251C188.518 176.731 187.866 177 187.187 177V177ZM81.6268 171.888H184.623V23.862H154.136V26.9633C154.136 27.6411 153.866 28.2913 153.385 28.7706C152.905 29.25 152.253 29.5192 151.573 29.5192H114.677C113.997 29.5192 113.345 29.25 112.865 28.7706C112.384 28.2913 112.114 27.6411 112.114 26.9633V23.862H81.6951V79.5315H110.149C112.109 79.5314 114.028 80.0915 115.678 81.1455C117.329 82.1995 118.642 83.7032 119.462 85.4784C120.075 86.8221 120.395 88.2796 120.402 89.7555V158.597C120.402 161.308 119.322 163.909 117.399 165.826C115.476 167.744 112.868 168.821 110.149 168.821H81.6951L81.6268 171.888Z" fill="#8CA87C"/>
<path d="M151.19 28.6542H114.34C113.661 28.6542 113.01 28.3808 112.53 27.8942C112.05 27.4075 111.78 26.7475 111.78 26.0593V12.4791C111.773 11.0212 112.045 9.57574 112.582 8.22342C113.447 6.01992 114.943 4.12982 116.878 2.79751C118.813 1.4652 121.098 0.751959 123.438 0.75H142.093C144.441 0.752606 146.734 1.47187 148.673 2.81411C150.612 4.15636 152.108 6.05938 152.965 8.27532C153.493 9.61164 153.76 11.0395 153.75 12.4791V26.0593C153.75 26.7475 153.48 27.4075 153 27.8942C152.52 28.3808 151.869 28.6542 151.19 28.6542ZM116.901 23.4643H148.629V12.4791C148.64 11.691 148.495 10.9088 148.203 10.1783C147.724 8.92985 146.885 7.8571 145.795 7.10074C144.704 6.34438 143.414 5.93973 142.093 5.93987H123.438C122.125 5.93675 120.841 6.33445 119.754 7.08117C118.668 7.82789 117.828 8.88903 117.344 10.1264C117.043 10.8728 116.892 11.6727 116.901 12.4791V23.4643ZM106.575 62.25H91.0602C90.3812 62.25 89.73 61.9766 89.2498 61.49C88.7697 61.0033 88.5 60.3433 88.5 59.6551V44.0854C88.5 43.3972 88.7697 42.7372 89.2498 42.2505C89.73 41.7639 90.3812 41.4905 91.0602 41.4905H106.575C107.254 41.4905 107.905 41.7639 108.385 42.2505C108.865 42.7372 109.135 43.3972 109.135 44.0854V59.6551C109.135 60.3433 108.865 61.0033 108.385 61.49C107.905 61.9766 107.254 62.25 106.575 62.25ZM93.6203 57.0601H104.015V46.6804H93.6203V57.0601Z" fill="#8CA87C"/>
<path d="M106.895 62.25H91.1055C90.4144 62.25 89.7517 61.9734 89.2631 61.4812C88.7745 60.9889 88.5 60.3212 88.5 59.625V43.875C88.5 43.1788 88.7745 42.5111 89.2631 42.0188C89.7517 41.5266 90.4144 41.25 91.1055 41.25H106.895C107.586 41.25 108.248 41.5266 108.737 42.0188C109.225 42.5111 109.5 43.1788 109.5 43.875V59.625C109.5 60.3212 109.225 60.9889 108.737 61.4812C108.248 61.9734 107.586 62.25 106.895 62.25ZM93.7109 57H104.289V46.5H93.7109V57Z" fill="#8CA87C"/>
<path d="M106.895 75.75H91.1055C89.6665 75.75 88.5 76.9835 88.5 78.5051V81.9949C88.5 83.5165 89.6665 84.75 91.1055 84.75H106.895C108.333 84.75 109.5 83.5165 109.5 81.9949V78.5051C109.5 76.9835 108.333 75.75 106.895 75.75Z" fill="#8CA87C"/>
<path d="M129.893 54.4099H116.134C115.456 54.4099 114.805 54.1408 114.325 53.6618C113.846 53.1828 113.576 52.5331 113.576 51.8557C113.576 51.1783 113.846 50.5286 114.325 50.0496C114.805 49.5706 115.456 49.3015 116.134 49.3015H129.774C130.452 49.3015 131.102 49.5706 131.582 50.0496C132.062 50.5286 132.331 51.1783 132.331 51.8557C132.331 52.5331 132.062 53.1828 131.582 53.6618C131.102 54.1408 130.452 54.4099 129.774 54.4099H129.893ZM146.192 54.4099H137.787C137.109 54.4099 136.458 54.1408 135.978 53.6618C135.499 53.1828 135.229 52.5331 135.229 51.8557C135.229 51.1783 135.499 50.5286 135.978 50.0496C136.458 49.5706 137.109 49.3015 137.787 49.3015H146.192C146.871 49.3015 147.521 49.5706 148.001 50.0496C148.48 50.5286 148.75 51.1783 148.75 51.8557C148.75 52.5331 148.48 53.1828 148.001 53.6618C147.521 54.1408 146.871 54.4099 146.192 54.4099ZM169.891 54.4099H153.643C152.965 54.4099 152.314 54.1408 151.835 53.6618C151.355 53.1828 151.086 52.5331 151.086 51.8557C151.086 51.1783 151.355 50.5286 151.835 50.0496C152.314 49.5706 152.965 49.3015 153.643 49.3015H169.943C170.621 49.3015 171.271 49.5706 171.751 50.0496C172.231 50.5286 172.5 51.1783 172.5 51.8557C172.5 52.5331 172.231 53.1828 171.751 53.6618C171.271 54.1408 170.621 54.4099 169.943 54.4099H169.891ZM169.891 88.8068H156.252C155.573 88.8068 154.923 88.5377 154.443 88.0587C153.964 87.5797 153.694 86.93 153.694 86.2526C153.694 85.5752 153.964 84.9255 154.443 84.4465C154.923 83.9675 155.573 83.6984 156.252 83.6984H169.891C170.57 83.6984 171.22 83.9675 171.7 84.4465C172.179 84.9255 172.449 85.5752 172.449 86.2526C172.449 86.93 172.179 87.5797 171.7 88.0587C171.22 88.5377 170.57 88.8068 169.891 88.8068V88.8068ZM148.289 88.8068H139.884C139.206 88.8068 138.555 88.5377 138.076 88.0587C137.596 87.5797 137.327 86.93 137.327 86.2526C137.327 85.5752 137.596 84.9255 138.076 84.4465C138.555 83.9675 139.206 83.6984 139.884 83.6984H148.289C148.968 83.6984 149.618 83.9675 150.098 84.4465C150.577 84.9255 150.847 85.5752 150.847 86.2526C150.847 86.93 150.577 87.5797 150.098 88.0587C149.618 88.5377 148.968 88.8068 148.289 88.8068V88.8068ZM132.484 88.8068H126.142C125.464 88.8068 124.813 88.5377 124.334 88.0587C123.854 87.5797 123.584 86.93 123.584 86.2526C123.584 85.5752 123.854 84.9255 124.334 84.4465C124.813 83.9675 125.464 83.6984 126.142 83.6984H132.484C133.163 83.6984 133.813 83.9675 134.293 84.4465C134.772 84.9255 135.042 85.5752 135.042 86.2526C135.042 86.93 134.772 87.5797 134.293 88.0587C133.813 88.5377 133.163 88.8068 132.484 88.8068V88.8068ZM146.192 121.637H127.83C127.152 121.637 126.501 121.368 126.021 120.889C125.542 120.41 125.272 119.76 125.272 119.083C125.272 118.406 125.542 117.756 126.021 117.277C126.501 116.798 127.152 116.529 127.83 116.529H146.192C146.871 116.529 147.521 116.798 148.001 117.277C148.48 117.756 148.75 118.406 148.75 119.083C148.75 119.76 148.48 120.41 148.001 120.889C147.521 121.368 146.871 121.637 146.192 121.637ZM169.891 121.637H153.643C152.965 121.637 152.314 121.368 151.835 120.889C151.355 120.41 151.086 119.76 151.086 119.083C151.086 118.406 151.355 117.756 151.835 117.277C152.314 116.798 152.965 116.529 153.643 116.529H169.943C170.621 116.529 171.271 116.798 171.751 117.277C172.231 117.756 172.5 118.406 172.5 119.083C172.5 119.76 172.231 120.41 171.751 120.889C171.271 121.368 170.621 121.637 169.943 121.637H169.891ZM169.891 156H156.252C155.573 156 154.923 155.731 154.443 155.252C153.964 154.773 153.694 154.123 153.694 153.446C153.694 152.768 153.964 152.119 154.443 151.64C154.923 151.161 155.573 150.892 156.252 150.892H169.891C170.57 150.892 171.22 151.161 171.7 151.64C172.179 152.119 172.449 152.768 172.449 153.446C172.449 154.123 172.179 154.773 171.7 155.252C171.22 155.731 170.57 156 169.891 156V156ZM148.289 156H131.905C131.226 156 130.576 155.731 130.096 155.252C129.617 154.773 129.347 154.123 129.347 153.446C129.347 152.768 129.617 152.119 130.096 151.64C130.576 151.161 131.226 150.892 131.905 150.892H148.289C148.968 150.892 149.618 151.161 150.098 151.64C150.577 152.119 150.847 152.768 150.847 153.446C150.847 154.123 150.577 154.773 150.098 155.252C149.618 155.731 148.968 156 148.289 156V156ZM89.5704 65.9721C89.2303 65.9737 88.8934 65.9067 88.5799 65.775C88.2664 65.6433 87.9828 65.4497 87.7461 65.2058C87.2672 64.7269 86.9981 64.0777 86.9981 63.4008C86.9981 62.7239 87.2672 62.0747 87.7461 61.5958L113.645 36.0536C113.88 35.8038 114.163 35.604 114.478 35.466C114.792 35.328 115.131 35.2546 115.474 35.2502C115.817 35.2458 116.158 35.3106 116.476 35.4405C116.794 35.5705 117.082 35.763 117.324 36.0067C117.565 36.2503 117.755 36.54 117.883 36.8586C118.01 37.1772 118.071 37.5181 118.064 37.8609C118.056 38.2038 117.979 38.5416 117.838 38.8542C117.697 39.1668 117.494 39.4479 117.242 39.6806L91.3436 65.2228C90.8738 65.6953 90.237 65.9644 89.5704 65.9721V65.9721ZM59.8699 126.184C56.9599 126.173 54.1424 125.161 51.8911 123.32C49.6399 121.478 48.092 118.919 47.5079 116.072C46.9237 113.224 47.3389 110.263 48.6835 107.686C50.0281 105.108 52.2203 103.072 54.8914 101.919C55.2799 101.748 55.705 101.677 56.1279 101.713C56.5509 101.749 56.9581 101.89 57.3124 102.123C57.6628 102.358 57.9512 102.675 58.153 103.045C58.3549 103.416 58.4642 103.83 58.4718 104.251C58.4942 106.236 59.2969 108.132 60.7068 109.531C62.1167 110.929 64.0206 111.718 66.0078 111.727C67.0233 111.684 68.0252 111.477 68.9744 111.114C69.3627 110.951 69.7852 110.887 70.2043 110.926C70.6235 110.966 71.0263 111.108 71.3772 111.341C71.728 111.573 72.0159 111.889 72.2154 112.259C72.4149 112.629 72.5198 113.043 72.5207 113.464C72.5159 115.879 71.8177 118.243 70.5089 120.275C69.3857 122.083 67.819 123.574 65.9572 124.608C64.0954 125.642 62.0002 126.185 59.8699 126.184V126.184ZM54.1412 108.645C53.4661 109.427 52.9596 110.341 52.6532 111.327C52.3468 112.314 52.2471 113.353 52.3602 114.38C52.4734 115.407 52.7969 116.399 53.3108 117.296C53.8247 118.192 54.5179 118.974 55.3472 119.591C56.1765 120.209 57.1242 120.649 58.1313 120.885C59.1383 121.12 60.1832 121.146 61.2009 120.961C62.2185 120.776 63.1871 120.384 64.0463 119.809C64.9056 119.234 65.6371 118.488 66.1953 117.619C66.3753 117.367 66.5404 117.106 66.6897 116.835H66.0078C63.432 116.831 60.9184 116.045 58.7995 114.582C56.6806 113.12 55.0561 111.049 54.1412 108.645V108.645Z" fill="#8CA87C"/>
<path d="M119.823 85.4659C119 83.685 117.682 82.1766 116.024 81.1192C114.367 80.0618 112.44 79.4999 110.472 79.5H10.2956C7.56502 79.5 4.9463 80.5806 3.01551 82.5041C1.08471 84.4276 0 87.0364 0 89.7566V158.818C0 161.538 1.08471 164.147 3.01551 166.07C4.9463 167.994 7.56502 169.074 10.2956 169.074H40.1013L39.1575 171.912C38.7496 173.183 38.5412 174.509 38.5398 175.843C38.5578 179.128 39.8767 182.272 42.2095 184.593C44.5424 186.914 47.7006 188.223 50.9974 188.237H71.9146C72.2003 188.254 72.4869 188.254 72.7726 188.237C74.37 188.003 75.8203 187.178 76.8341 185.926C77.848 184.674 78.3509 183.088 78.2426 181.483C78.1344 179.878 77.4229 178.373 76.25 177.267C75.0771 176.162 73.5291 175.538 71.9146 175.519H65.703C65.5722 175.539 65.439 175.539 65.3083 175.519C65.1514 175.467 65.0066 175.385 64.8827 175.276C64.7589 175.167 64.6584 175.035 64.5876 174.886C64.4579 174.568 64.4579 174.213 64.5876 173.895L66.1663 169.177H110.454C113.185 169.177 115.804 168.096 117.734 166.173C119.665 164.249 120.75 161.64 120.75 158.92V89.7395C120.742 88.2663 120.427 86.811 119.823 85.4659V85.4659ZM115.602 158.8C115.602 160.161 115.06 161.465 114.094 162.427C113.129 163.388 111.82 163.929 110.454 163.929H64.2444C63.7099 163.924 63.1873 164.087 62.7502 164.393C62.3132 164.7 61.9836 165.135 61.8078 165.638L59.5771 172.134C59.3036 172.937 59.1929 173.787 59.2514 174.633C59.3099 175.48 59.5365 176.306 59.918 177.064C60.2994 177.823 60.8282 178.498 61.4737 179.052C62.1192 179.605 62.8685 180.025 63.6782 180.288C64.3119 180.484 64.9708 180.588 65.6343 180.596H71.846C72.1844 180.591 72.511 180.719 72.7551 180.953C72.9992 181.187 73.1411 181.507 73.1501 181.844C73.1524 182.15 73.0419 182.446 72.8394 182.676C72.6369 182.906 72.3567 183.054 72.0519 183.091H50.9974C49.0481 183.091 47.1783 182.321 45.7982 180.95C44.4182 179.578 43.6406 177.717 43.6361 175.775C43.636 174.992 43.7575 174.214 43.9964 173.467L46.0727 167.296C46.2103 166.909 46.2523 166.494 46.1952 166.087C46.1381 165.68 45.9836 165.292 45.7447 164.957C45.5059 164.622 45.1896 164.349 44.8226 164.161C44.4557 163.973 44.0487 163.876 43.6361 163.877H10.2956C8.9303 163.877 7.62094 163.337 6.65554 162.375C5.69015 161.414 5.14779 160.109 5.14779 158.749V89.7395C5.14779 88.3794 5.69015 87.075 6.65554 86.1132C7.62094 85.1515 8.9303 84.6112 10.2956 84.6112H110.454C111.439 84.6088 112.404 84.8877 113.234 85.4149C114.064 85.9421 114.725 86.6954 115.139 87.5856C115.437 88.2654 115.594 88.9979 115.602 89.7395V158.8Z" fill="#8CA87C"/>
<path d="M59.5392 126.453C56.6075 126.442 53.7689 125.432 51.5008 123.592C49.2327 121.753 47.6733 119.196 47.0848 116.352C46.4962 113.508 46.9145 110.55 48.2692 107.975C49.6238 105.401 51.8324 103.366 54.5235 102.214C54.9149 102.044 55.3432 101.973 55.7693 102.009C56.1954 102.045 56.6057 102.185 56.9626 102.419C57.3157 102.654 57.6062 102.97 57.8095 103.34C58.0129 103.71 58.123 104.123 58.1307 104.545C58.1532 106.527 58.962 108.421 60.3824 109.818C61.8028 111.215 63.721 112.003 65.723 112.012C66.7462 111.969 67.7556 111.762 68.7119 111.399C69.103 111.237 69.5287 111.173 69.951 111.212C70.3732 111.252 70.7791 111.394 71.1326 111.626C71.4861 111.859 71.7762 112.174 71.9771 112.544C72.1781 112.913 72.2838 113.327 72.2847 113.747C72.2798 116.16 71.5764 118.521 70.2578 120.55C69.1262 122.356 67.5478 123.846 65.6721 124.879C63.7964 125.912 61.6854 126.454 59.5392 126.453V126.453ZM53.7677 108.933C53.0876 109.715 52.5773 110.627 52.2686 111.613C51.9599 112.598 51.8594 113.636 51.9734 114.662C52.0874 115.688 52.4134 116.679 52.9311 117.575C53.4488 118.47 54.1472 119.251 54.9827 119.867C55.8182 120.484 56.773 120.924 57.7876 121.159C58.8022 121.395 59.8549 121.421 60.8802 121.236C61.9054 121.051 62.8812 120.66 63.7469 120.085C64.6126 119.511 65.3496 118.766 65.912 117.897C66.0933 117.646 66.2597 117.385 66.4101 117.115H65.723C63.128 117.11 60.5956 116.325 58.4608 114.864C56.326 113.403 54.6895 111.335 53.7677 108.933V108.933ZM52.4279 147H31.0766C30.3932 147 29.7379 146.731 29.2547 146.253C28.7715 145.774 28.5 145.125 28.5 144.449C28.5 143.772 28.7715 143.123 29.2547 142.644C29.7379 142.166 30.3932 141.897 31.0766 141.897H52.4279C53.1112 141.897 53.7666 142.166 54.2498 142.644C54.733 143.123 55.0044 143.772 55.0044 144.449C55.0044 145.125 54.733 145.774 54.2498 146.253C53.7666 146.731 53.1112 147 52.4279 147ZM85.9234 147H64.5721C63.8888 147 63.2334 146.731 62.7502 146.253C62.267 145.774 61.9956 145.125 61.9956 144.449C61.9956 143.772 62.267 143.123 62.7502 142.644C63.2334 142.166 63.8888 141.897 64.5721 141.897H85.9234C86.6068 141.897 87.2621 142.166 87.7453 142.644C88.2285 143.123 88.5 143.772 88.5 144.449C88.5 145.125 88.2285 145.774 87.7453 146.253C87.2621 146.731 86.6068 147 85.9234 147Z" fill="#8CA87C"/>
</svg>
